<svg xmlns="http://www.w3.org/2000/svg" viewBox="0 0 720 360" fill="none">
  <!-- North America -->
  <path d="M24,50 C30,48 45,52 60,56 C72,59 86,62 100,68 C108,74 114,82 116,90 C118,96 120,104 124,112 C128,118 136,126 148,134 C156,140 164,144 168,142 C172,138 178,132 184,128 C188,126 194,128 198,130 C200,132 204,128 208,120 C212,112 216,102 220,94 C224,88 230,82 240,78 C244,74 244,68 240,64 C234,60 222,56 208,54 C194,52 178,48 160,46 C142,44 120,42 100,42 C80,44 60,46 40,48 Z" fill="#1a6d50"/>
  <!-- Alaska detail -->
  <path d="M10,54 C14,50 20,48 28,50 C24,52 18,56 12,58 Z" fill="#1a6d50" opacity="0.85"/>
  <!-- Greenland -->
  <path d="M260,32 C272,26 290,24 306,28 C314,34 318,42 314,52 C308,58 296,60 280,58 C268,54 260,44 260,32 Z" fill="#2a7a6a" opacity="0.7"/>
  <!-- South America -->
  <path d="M218,166 C224,160 234,156 248,156 C260,158 272,164 282,172 C290,180 294,192 292,204 C288,216 282,228 274,240 C264,252 252,262 240,268 C230,264 222,256 216,244 C210,230 208,216 208,200 C210,186 214,174 218,166 Z" fill="#1a6d50"/>
  <!-- Europe -->
  <path d="M346,98 C350,94 354,86 356,78 C356,72 358,64 362,58 C368,52 376,48 386,48 C392,50 396,56 394,62 C392,68 390,76 388,84 C388,90 392,96 398,100 C402,102 406,106 404,108 C400,110 392,108 384,104 C376,100 366,98 358,98 C352,98 348,98 346,98 Z" fill="#1a6d50"/>
  <!-- Scandinavia -->
  <path d="M372,44 C378,38 384,36 390,40 C394,46 392,52 388,56 C382,54 376,50 372,44 Z" fill="#1a6d50" opacity="0.85"/>
  <!-- UK + Ireland -->
  <path d="M340,70 C342,66 346,64 350,66 C354,68 356,72 354,78 C350,80 344,76 340,70 Z" fill="#1a6d50" opacity="0.8"/>
  <!-- Italy -->
  <path d="M386,96 C388,92 392,94 394,98 C394,104 392,110 388,114 C384,112 384,106 384,100 Z" fill="#1a6d50" opacity="0.8"/>
  <!-- Africa -->
  <path d="M350,116 C360,112 376,110 394,112 C410,116 426,124 438,134 C448,144 454,156 456,170 C454,184 448,198 440,212 C430,226 420,238 412,246 C404,250 394,248 386,242 C376,232 368,218 362,204 C358,190 354,174 350,158 C346,142 346,128 350,116 Z" fill="#1a6d50"/>
  <!-- Madagascar -->
  <path d="M462,228 C464,222 468,224 468,232 C466,238 462,236 462,228 Z" fill="#1a6d50" opacity="0.65"/>
  <!-- Asia mainland -->
  <path d="M434,102 C446,94 462,84 480,74 C498,64 516,54 538,48 C560,44 584,44 608,44 C630,46 652,52 670,58 C684,62 698,58 710,52 C714,60 714,72 710,82 C702,90 690,96 674,98 C656,102 638,106 622,110 C606,116 592,124 580,132 C568,140 556,146 542,148 C530,150 520,152 516,160 C512,166 506,162 498,154 C490,144 480,136 470,128 C460,122 450,114 442,108 Z" fill="#1a6d50"/>
  <!-- Arabia -->
  <path d="M436,124 C442,120 450,118 456,122 C460,128 458,136 454,142 C448,140 442,134 438,128 Z" fill="#1a6d50" opacity="0.8"/>
  <!-- India -->
  <path d="M500,130 C508,126 518,126 526,132 C530,140 528,150 524,160 C518,168 510,166 504,158 C498,148 498,138 500,130 Z" fill="#1a6d50"/>
  <!-- SE Asian peninsula -->
  <path d="M556,148 C562,144 568,146 570,152 C570,158 566,166 560,170 C556,164 554,156 556,148 Z" fill="#1a6d50" opacity="0.8"/>
  <!-- Indonesia archipelago -->
  <path d="M574,182 C582,178 594,178 604,182 C610,186 606,192 596,192 C586,190 578,186 574,182 Z" fill="#1a6d50" opacity="0.7"/>
  <path d="M612,184 C620,182 630,184 636,188 C634,194 626,194 618,192 C614,188 612,186 612,184 Z" fill="#1a6d50" opacity="0.65"/>
  <path d="M640,190 C646,188 652,190 654,194 C652,198 646,198 642,196 Z" fill="#1a6d50" opacity="0.6"/>
  <!-- Japan -->
  <path d="M632,82 C636,78 640,80 644,86 C646,94 644,102 640,108 C636,106 634,100 632,92 Z" fill="#1a6d50" opacity="0.8"/>
  <!-- Korea -->
  <path d="M624,96 C628,92 632,94 632,100 C630,106 626,104 624,100 Z" fill="#1a6d50" opacity="0.75"/>
  <!-- Philippines -->
  <path d="M600,152 C604,148 608,150 608,156 C606,162 602,160 600,156 Z" fill="#1a6d50" opacity="0.65"/>
  <!-- Australia -->
  <path d="M592,210 C604,204 622,202 642,206 C656,212 666,222 668,234 C666,246 656,254 642,258 C626,260 610,256 598,248 C590,240 586,228 588,218 Z" fill="#1a6d50"/>
  <!-- New Zealand -->
  <path d="M680,250 C684,246 688,250 686,258 C682,262 678,258 680,250 Z" fill="#1a6d50" opacity="0.7"/>
  <!-- Tasmania -->
  <path d="M650,262 C654,260 658,262 656,268 C652,268 650,266 650,262 Z" fill="#1a6d50" opacity="0.6"/>
  <!-- Russia far east (wraps past date line) -->
  <path d="M0,56 C6,50 14,48 20,52 C18,58 10,62 2,60 Z" fill="#1a6d50" opacity="0.7"/>
  <!-- Iceland -->
  <path d="M324,42 C328,38 334,38 336,42 C334,46 328,46 324,42 Z" fill="#2a7a6a" opacity="0.6"/>
  <!-- Sri Lanka -->
  <path d="M520,170 C524,168 526,172 524,176 C520,176 518,174 520,170 Z" fill="#1a6d50" opacity="0.6"/>
  <!-- Antarctica -->
  <path d="M0,340 C60,336 180,332 360,334 C540,332 660,336 720,340 L720,360 L0,360 Z" fill="#2a7a6a" opacity="0.25"/>
</svg>
